<svg id="Layer_2" data-name="Layer 2" xmlns="http://www.w3.org/2000/svg" viewBox="0 0 227.36 227.36"><defs><style>.cls-1{fill:#231f20;}.cls-2{fill:#fff;}</style></defs><rect class="cls-1" width="227.36" height="227.36"/><path class="cls-2" d="M51.13,82.4a36.21,36.21,0,0,1,1,5.53,79.6,79.6,0,0,1,.65,8.6,11.53,11.53,0,0,1-.22,2.09l-.54.16-3.86-.27-.65-.1q-2.36-7.09-4.72-9.62a12.88,12.88,0,0,0-9.62-4.3,12.07,12.07,0,0,0-8.35,2.77,8.84,8.84,0,0,0-3.09,6.86,9.51,9.51,0,0,0,3.06,6.61q3,3.17,12.79,6.06a59.93,59.93,0,0,1,7.92,3.11,23,23,0,0,1,7.07,4.66A20,20,0,0,1,57,121a21.22,21.22,0,0,1,1.21,7.71,27.55,27.55,0,0,1-1.88,9.94A14.88,14.88,0,0,1,53,143.52a30.87,30.87,0,0,1-5,3.79,24.58,24.58,0,0,1-7,3.14,37.29,37.29,0,0,1-9.32,1,45.2,45.2,0,0,1-9-1.08l-6.44-1.88a10.61,10.61,0,0,1-3.39-1.34,2,2,0,0,1-.48-1v-.59c0-.39-.09-2.85-.27-7.36-.07-2.33-.11-4-.11-4.94v-2l5-.11q2.57,6,3.32,7.22A17.72,17.72,0,0,0,24,142.73a15.52,15.52,0,0,0,4.8,2.7,17.9,17.9,0,0,0,6,1,19.41,19.41,0,0,0,6.39-1.23,11.78,11.78,0,0,0,5.6-4.06,9.93,9.93,0,0,0,2.12-6c0-2.66-1.24-5.11-3.71-7.37q-2.25-2.1-12.14-5.59t-13.69-6.24a18.82,18.82,0,0,1-6-7.34,20.39,20.39,0,0,1-2.2-8.84,19.48,19.48,0,0,1,6.12-14.5q6.12-6,18.05-6a47.87,47.87,0,0,1,7.63.91A57.53,57.53,0,0,1,51.13,82.4Z" transform="translate(-1.55 -1.64)"/><path class="cls-2" d="M66.7,114.73a37.06,37.06,0,0,1,2.58-13.37,31.14,31.14,0,0,1,5.26-8.86A34.42,34.42,0,0,1,83,85.33a37.92,37.92,0,0,1,10.41-4.52,47.72,47.72,0,0,1,11.86-1.36q11.17,0,19.38,4.18A33.31,33.31,0,0,1,137.6,95a34.88,34.88,0,0,1,6.12,19.49,36.41,36.41,0,0,1-10.33,26.05q-10.33,10.86-28.74,10.85a57.14,57.14,0,0,1-8.53-.59,30,30,0,0,1-5.27-1.18q-4.08-1.34-4.56-1.56a45.09,45.09,0,0,1-9.39-6.82,35,35,0,0,1-6-7.89,45,45,0,0,1-3.06-8.92A37.05,37.05,0,0,1,66.7,114.73Zm36.55-30A15.65,15.65,0,0,0,95,86.94a17.41,17.41,0,0,0-5.41,4.8,29.52,29.52,0,0,0-4.35,9.75,55.18,55.18,0,0,0-1.29,12.87,40,40,0,0,0,.38,6.6c.07.43.18,1.17.32,2.21a29.65,29.65,0,0,0,1.13,5.8A57.37,57.37,0,0,0,89,137.4a21.58,21.58,0,0,0,4.77,5.42,15.42,15.42,0,0,0,4.67,2.56,17.22,17.22,0,0,0,6.12,1.15,22,22,0,0,0,10.75-2.71q5-2.72,8-9.21t3-16.92q0-4.31-.59-11.66l-.27-1a20.8,20.8,0,0,1-.53-2.2q-2-8.81-7.6-13.43T103.25,84.76Z" transform="translate(-1.55 -1.64)"/><path class="cls-2" d="M143.45,150.34l.11-3.65a36.66,36.66,0,0,1,3.6-.8q4.14-.81,5-1.45a9.69,9.69,0,0,0,2.18-3.12l10.84-28.39,12.72-33.38h5.84l.49,1,9.33,22.13q3.16,7,5.69,13.67t4.35,10.82c.71,1.68,1.7,4.21,2.95,7.57a69,69,0,0,0,3,6.88,8.2,8.2,0,0,0,1.61,2.63,6,6,0,0,0,3.14,1.07,20.41,20.41,0,0,1,4.7,1.24,19.35,19.35,0,0,1,.27,2.63c0,.25,0,.65-.05,1.18q-4,0-8.76-.37t-8.59-.38q-4.25,0-6.12.11l-9.14.48-2.63.11c0-1.25.06-2.45.16-3.6l6-1.29a11.09,11.09,0,0,0,3.11-1.07,1.7,1.7,0,0,0,.54-1.24,4.3,4.3,0,0,0-.27-1.45l-2.13-5.26-4.22-10.53-20.5,0q-1.14,2.58-4.73,12.62a14.49,14.49,0,0,0-1,3.87,2.36,2.36,0,0,0,.75,2c.82.68,2.4,1.17,4.73,1.45.32.08,1.59.27,3.81.6,0,1.28,0,2.18,0,2.68a7.67,7.67,0,0,1-.1,1.24c-2.23,0-7.52-.31-15.9-.92l-2.21.38a47.26,47.26,0,0,1-7.57.64Zm25.27-30.18q12.56.16,14.81.16l1.34,0q-1.62-4.78-4.19-11.15t-4.19-9.69Z" transform="translate(-1.55 -1.64)"/></svg>